<svg width="26" height="27" viewBox="0 0 26 27" fill="none" xmlns="http://www.w3.org/2000/svg">
<path d="M12.7613 2.36871C6.8862 2.36871 2.12866 7.18403 2.12866 13.1172C2.12866 19.0503 6.8862 23.8657 12.7613 23.8657C18.647 23.8657 23.4152 19.0503 23.4152 13.1172C23.4152 7.18403 18.647 2.36871 12.7613 2.36871ZM12.7719 21.716C8.0676 21.716 4.25731 17.868 4.25731 13.1172C4.25731 8.36636 8.0676 4.51841 12.7719 4.51841C17.4762 4.51841 21.2865 8.36636 21.2865 13.1172C21.2865 17.868 17.4762 21.716 12.7719 21.716Z" fill="black"/>
<path d="M13.3041 7.7431H11.7076V14.1922L17.2953 17.578L18.0935 16.2559L13.3041 13.3861V7.7431Z" fill="black"/>
</svg>
