<svg width="49" height="74" viewBox="0 0 49 74" fill="none" xmlns="http://www.w3.org/2000/svg">
<path d="M24.0352 0.742981C10.782 0.742981 0 11.6315 0 25.0157C0 38.3992 10.782 49.2885 24.0352 49.2885C37.2876 49.2885 48.0703 38.3992 48.0703 25.0157C48.0703 11.6315 37.2876 0.742981 24.0352 0.742981ZM24.0352 44.5135C13.3896 44.5135 4.72823 35.7665 4.72823 25.0157C4.72823 14.2649 13.3896 5.51794 24.0352 5.51794C34.6816 5.51794 43.3421 14.2649 43.3421 25.0157C43.3421 35.7665 34.6816 44.5135 24.0352 44.5135Z" fill="#27AE60"/>
<path d="M19.2569 30.3083L13.4005 24.4047L11.4062 26.4009L19.2569 34.3149L36.1099 17.326L34.1297 15.3298L19.2569 30.3083Z" fill="#27AE60"/>
<path d="M40.8172 70.1185L39.6351 41.7869L34.9117 41.9875L35.9424 66.682L26.1763 58.1841C24.9557 57.0325 23.1141 57.031 21.8926 58.1841L12.1272 66.6812L13.158 41.9875L8.4337 41.7869L7.25161 70.1185C7.25076 70.1519 7.25006 70.1854 7.25006 70.2188C7.25006 71.4833 7.97737 72.6381 9.10349 73.1602C10.2351 73.687 11.5353 73.4984 12.4968 72.6635L24.0352 62.6241L35.5768 72.6674C36.1757 73.1854 36.9078 73.4537 37.6485 73.4537C38.0946 73.4537 38.5429 73.3574 38.9669 73.16C40.0921 72.638 40.8196 71.4833 40.8196 70.2186C40.8196 70.1852 40.8189 70.1519 40.8172 70.1185Z" fill="#27AE60"/>
</svg>
